<svg width="96" height="96" viewBox="0 0 96 96" fill="none" xmlns="http://www.w3.org/2000/svg">
<path fill-rule="evenodd" clip-rule="evenodd" d="M66.3226 44.7097C58.9581 44.7097 52.9677 50.7016 52.9677 58.0645C52.9677 65.4275 58.9581 71.4194 66.3226 71.4194C73.687 71.4194 79.6774 65.4275 79.6774 58.0645C79.6774 50.7016 73.687 44.7097 66.3226 44.7097ZM66.3226 74.3871C57.3229 74.3871 50 67.0642 50 58.0645C50 49.0648 57.3229 41.7419 66.3226 41.7419C75.3223 41.7419 82.6452 49.0648 82.6452 58.0645C82.6452 67.0642 75.3223 74.3871 66.3226 74.3871Z" fill="white"/>
<path fill-rule="evenodd" clip-rule="evenodd" d="M66.3225 35.8068C54.0494 35.8068 44.0645 45.7917 44.0645 58.0648C44.0645 70.3379 54.0494 80.3229 66.3225 80.3229C78.5956 80.3229 88.5806 70.3379 88.5806 58.0648C88.5806 45.7917 78.5956 35.8068 66.3225 35.8068ZM66.3225 83.2906C52.4127 83.2906 41.0967 71.9746 41.0967 58.0648C41.0967 44.155 52.4127 32.839 66.3225 32.839C80.2323 32.839 91.5483 44.155 91.5483 58.0648C91.5483 71.9746 80.2323 83.2906 66.3225 83.2906Z" fill="white"/>
<path fill-rule="evenodd" clip-rule="evenodd" d="M64.8387 87.7427H67.8064V64.0007H64.8387V87.7427Z" fill="white"/>
<path fill-rule="evenodd" clip-rule="evenodd" d="M64.8387 52.1295H67.8064V28.3876H64.8387V52.1295Z" fill="white"/>
<path fill-rule="evenodd" clip-rule="evenodd" d="M36.6452 59.5492H60.3872V56.5815H36.6452V59.5492Z" fill="white"/>
<path fill-rule="evenodd" clip-rule="evenodd" d="M72.2581 59.5492H96V56.5815H72.2581V59.5492Z" fill="white"/>
<path fill-rule="evenodd" clip-rule="evenodd" d="M64.8387 59.5492H67.8064V56.5815H64.8387V59.5492Z" fill="white"/>
<path fill-rule="evenodd" clip-rule="evenodd" d="M26.2581 50.6458H29.2258V47.6781H26.2581V50.6458Z" fill="white"/>
<path fill-rule="evenodd" clip-rule="evenodd" d="M26.2581 56.5817H29.2258V53.6139H26.2581V56.5817Z" fill="white"/>
<path fill-rule="evenodd" clip-rule="evenodd" d="M23.2905 53.6134H26.2582V50.6456H23.2905V53.6134Z" fill="white"/>
<path fill-rule="evenodd" clip-rule="evenodd" d="M29.2257 53.6134H32.1935V50.6456H29.2257V53.6134Z" fill="white"/>
<path fill-rule="evenodd" clip-rule="evenodd" d="M33.6776 31.3553H36.6453V25.4198H33.6776V31.3553Z" fill="white"/>
<path fill-rule="evenodd" clip-rule="evenodd" d="M33.6776 43.2265H36.6453V37.291H33.6776V43.2265Z" fill="white"/>
<path fill-rule="evenodd" clip-rule="evenodd" d="M26.2581 35.8075H32.1935V32.8398H26.2581V35.8075Z" fill="white"/>
<path fill-rule="evenodd" clip-rule="evenodd" d="M38.129 35.8075H44.0645V32.8398H38.129V35.8075Z" fill="white"/>
<path fill-rule="evenodd" clip-rule="evenodd" d="M12.9034 69.9355C12.0828 69.9355 11.4195 69.2707 11.4195 68.4516V22.4516C11.4195 19.9973 13.4168 18 15.8711 18H81.1615C83.6158 18 85.6131 19.9973 85.6131 22.4516V34.3226C85.6131 35.1417 84.9498 35.8065 84.1292 35.8065C83.3086 35.8065 82.6453 35.1417 82.6453 34.3226V22.4516C82.6453 21.634 81.9806 20.9677 81.1615 20.9677H15.8711C15.052 20.9677 14.3873 21.634 14.3873 22.4516V68.4516C14.3873 69.2707 13.724 69.9355 12.9034 69.9355Z" fill="white"/>
<path fill-rule="evenodd" clip-rule="evenodd" d="M41.0968 75.8708H11.4194C7.32832 75.8708 4 72.5425 4 68.4514V66.9676H38.129C38.9496 66.9676 39.6129 67.6323 39.6129 68.4514C39.6129 69.2705 38.9496 69.9353 38.129 69.9353H7.22148C7.83432 71.6625 9.48439 72.903 11.4194 72.903H41.0968C41.9174 72.903 42.5806 73.5678 42.5806 74.3869C42.5806 75.206 41.9174 75.8708 41.0968 75.8708Z" fill="white"/>
</svg>
