<svg width="96" height="96" viewBox="0 0 96 96" fill="none" xmlns="http://www.w3.org/2000/svg">
<path fill-rule="evenodd" clip-rule="evenodd" d="M8 10V85H24.25V82.5H10.5V12.5H85.5V82.5H71.75V85H88V10H8Z" fill="white"/>
<path fill-rule="evenodd" clip-rule="evenodd" d="M9.25 22.5H86.75V20H9.25V22.5Z" fill="white"/>
<path fill-rule="evenodd" clip-rule="evenodd" d="M13 17.5H15.5V15H13V17.5Z" fill="white"/>
<path fill-rule="evenodd" clip-rule="evenodd" d="M18 17.5H20.5V15H18V17.5Z" fill="white"/>
<path fill-rule="evenodd" clip-rule="evenodd" d="M23 17.5H25.5V15H23V17.5Z" fill="white"/>
<path fill-rule="evenodd" clip-rule="evenodd" d="M28 21.25H30.5V11.25H28V21.25Z" fill="white"/>
<path fill-rule="evenodd" clip-rule="evenodd" d="M33 17.5H83V15H33V17.5Z" fill="white"/>
<path fill-rule="evenodd" clip-rule="evenodd" d="M83 80H71.75V77.5H80.5V27.5H15.5V77.5H24.25V80H13V25H83V80Z" fill="white"/>
<path fill-rule="evenodd" clip-rule="evenodd" d="M31.75 57.5C30.3713 57.5 29.25 58.6213 29.25 60V85C29.25 86.3788 30.3713 87.5 31.75 87.5H64.25C65.6288 87.5 66.75 86.3788 66.75 85V60C66.75 58.6213 65.6288 57.5 64.25 57.5H31.75ZM64.25 90H31.75C28.9925 90 26.75 87.7575 26.75 85V60C26.75 57.2425 28.9925 55 31.75 55H64.25C67.0075 55 69.25 57.2425 69.25 60V85C69.25 87.7575 67.0075 90 64.25 90Z" fill="white"/>
<path fill-rule="evenodd" clip-rule="evenodd" d="M55.5 56.25H53V47.5C53 44.7425 50.7575 42.5 48 42.5C45.2425 42.5 43 44.7425 43 47.5V56.25H40.5V47.5C40.5 43.3638 43.8638 40 48 40C52.1363 40 55.5 43.3638 55.5 47.5V56.25Z" fill="white"/>
<path fill-rule="evenodd" clip-rule="evenodd" d="M63 56.25H60.5V47.5C60.5 40.6075 54.8925 35 48 35C41.1075 35 35.5 40.6075 35.5 47.5V56.25H33V47.5C33 39.2288 39.7288 32.5 48 32.5C56.2713 32.5 63 39.2288 63 47.5V56.25Z" fill="white"/>
<path fill-rule="evenodd" clip-rule="evenodd" d="M31.75 85H64.25V82.5H31.75V85Z" fill="white"/>
<path fill-rule="evenodd" clip-rule="evenodd" d="M48 65C46.6213 65 45.5 66.1213 45.5 67.5C45.5 68.8788 46.6213 70 48 70C49.3788 70 50.5 68.8788 50.5 67.5C50.5 66.1213 49.3788 65 48 65ZM48 72.5C45.2425 72.5 43 70.2575 43 67.5C43 64.7425 45.2425 62.5 48 62.5C50.7575 62.5 53 64.7425 53 67.5C53 70.2575 50.7575 72.5 48 72.5Z" fill="white"/>
<path fill-rule="evenodd" clip-rule="evenodd" d="M46.75 77.5H49.25V71.25H46.75V77.5Z" fill="white"/>
</svg>
