<svg width="96" height="96" viewBox="0 0 96 96" fill="none" xmlns="http://www.w3.org/2000/svg">
<path d="M14.9193 47.8655C14.9193 29.6782 29.635 14.9331 47.7862 14.9331C56.0341 14.9331 63.5692 17.9785 69.3399 23.0068L63.2561 28.2812L78.9111 28.8011L80.6531 13.1999L74.6125 18.4361C67.5375 11.9588 58.1254 8 47.7862 8C25.8138 8 8 25.8476 8 47.8655C8 53.7362 9.26451 59.3087 11.5392 64.3265" stroke="white" stroke-width="3"/>
<path d="M81.0807 48.1344C81.0807 66.3218 66.365 81.0668 48.2138 81.0668C39.966 81.0668 32.4308 78.0214 26.6601 72.9932L32.7439 67.7188L17.0889 67.1988L15.3469 82.8001L21.3875 77.5639C28.4625 84.0411 37.8746 88 48.2138 88C70.1862 88 88 70.1523 88 48.1344C88 42.2638 86.7355 36.6913 84.4608 31.6734" stroke="white" stroke-width="3"/>
<path d="M46.3673 58.6122H35.7551C35.7551 56.3465 36.6554 54.1746 38.256 52.5739L41.4716 49.3584C43.4737 47.3562 44.5986 44.6412 44.5986 41.8095C44.5986 39.3669 42.6195 37.3878 40.1769 37.3878C37.7343 37.3878 35.7551 39.3669 35.7551 41.8095V44.4626" stroke="white" stroke-width="3"/>
<path d="M63.5102 51.4537H49.6326V49.6955L56.5714 37.3878H58.3061V60.2449" stroke="white" stroke-width="3"/>
</svg>
