<svg xmlns="http://www.w3.org/2000/svg" xmlns:xlink="http://www.w3.org/1999/xlink" width="104" height="1144" xmlns:v="https://vecta.io/nano"><style><![CDATA[.m{stroke-linejoin:round}.n{stroke-width:1.5}.o{stroke-linecap:round}.p{stroke-width:1}.q{stroke:#fff}.r{stroke:#2f8d46}.s{stroke:#263238}.t{fill:#fff}.u{fill:#263238}.v{stroke:#707070}.w{fill:none}.x{fill:#2f8d46}.y{stroke-width:1.8}.z{stroke-width:1.6}.AA{stroke:#39914e}.AB{clip-path:url(#Y)}.AC{clip-path:url(#A)}.AD{clip-path:url(#I)}.AE{clip-path:url(#Q)}]]></style><defs><clipPath id="A"><path transform="translate(40 10)" d="M0 0h24v24H0z" class="p r t"/></clipPath><clipPath id="B"><path transform="translate(40 10)" d="M0 0h24v24H0z" class="p r u"/></clipPath><clipPath id="C"><path transform="translate(21 119)" d="M0 0h24v24H0z" class="p r t"/></clipPath><clipPath id="D"><path transform="translate(21 119)" d="M0 0h24v24H0z" class="p s u"/></clipPath><clipPath id="E"><path transform="translate(21 119)" d="M0 0h24v24H0z" class="p q t"/></clipPath><clipPath id="F"><path transform="translate(67 138)" d="M0 0h24v24H0z" class="p v x"/></clipPath><clipPath id="G"><path transform="translate(67 138)" d="M0 0h24v24H0z" class="p u v"/></clipPath><clipPath id="H"><path transform="translate(67 138)" d="M0 0h24v24H0z" class="p t v"/></clipPath><clipPath id="I"><path transform="translate(41 168)" d="M0 0h24v24H0z" class="p t v"/></clipPath><clipPath id="J"><path transform="translate(41 168)" d="M0 0h24v24H0z" class="p u v"/></clipPath><clipPath id="K"><path transform="translate(40 205)" d="M0 0h24v24H0z" class="p r t"/></clipPath><clipPath id="L"><path transform="translate(40 205)" d="M0 0h24v24H0z" class="p s u"/></clipPath><clipPath id="M"><path transform="translate(40 205)" d="M0 0h24v24H0z" class="p q t"/></clipPath><clipPath id="N"><path transform="translate(41 248)" d="M0 0h24v24H0z" class="p r t"/></clipPath><clipPath id="O"><path transform="translate(41 248)" d="M0 0h24v24H0z" class="p s u"/></clipPath><clipPath id="P"><path transform="translate(41 248)" d="M0 0h24v24H0z" class="p q t"/></clipPath><clipPath id="Q"><path transform="translate(40 327)" d="M0 0h24v24H0z" class="p r t"/></clipPath><clipPath id="R"><path transform="translate(40 327)" d="M0 0h24v24H0z" class="p r u"/></clipPath><clipPath id="S"><path transform="translate(11039 -575)" d="M0 0h24v24H0z" class="p v x"/></clipPath><clipPath id="T"><path transform="translate(11039 -575)" d="M0 0h24v24H0z" class="p u v"/></clipPath><clipPath id="U"><path transform="translate(11039 -575)" d="M0 0h24v24H0z" class="p t v"/></clipPath><clipPath id="V"><path transform="translate(0 320)" d="M0 0h24v24H0z" class="p r t"/></clipPath><clipPath id="W"><path transform="translate(0 320)" d="M0 0h24v24H0z" class="p s u"/></clipPath><clipPath id="X"><path transform="translate(0 320)" d="M0 0h24v24H0z" class="p q t"/></clipPath><clipPath id="Y"><path transform="translate(0 888)" d="M0 0h24v24H0z" class="p r t"/></clipPath><clipPath id="Z"><path transform="translate(0 1037)" fill="#39914e" d="M0 0h24v24H0z" class="p v"/></clipPath><clipPath id="a"><path transform="translate(0 1037)" d="M0 0h24v24H0z" class="p u v"/></clipPath><clipPath id="b"><path transform="translate(0 1037)" d="M0 0h24v24H0z" class="p t v"/></clipPath><clipPath id="c"><path d="M0 0h104v1144H0z"/></clipPath><path id="d" d="M51.818 26.848L45 20.03 47.03 18l4.787 4.787L56.6 18l2.03 2.03z"/><path id="e" d="M58.704 216.002c0 5.128-6.593 9.524-6.593 9.524s-6.594-4.396-6.594-9.524c0-3.64 2.952-6.593 6.593-6.593s6.593 2.952 6.593 6.593z"/><path id="f" d="M46.572 254H59.15c.867.003 1.57.705 1.572 1.572v9.434c-.003.867-.705 1.57-1.572 1.572H46.572c-.867-.003-1.57-.705-1.572-1.572v-9.434c.003-.867.705-1.57 1.572-1.572z"/><path id="g" d="M46 338.676v-4.6A1.08 1.08 0 0 1 47.081 333h4.6a1.08 1.08 0 0 1 .759.316l4.77 4.77a1.08 1.08 0 0 1 0 1.528l-4.6 4.6a1.08 1.08 0 0 1-1.528 0l-4.765-4.774a1.08 1.08 0 0 1-.317-.764zm2.52-4.235a1.08 1.08 0 1 0 1.079 1.08 1.08 1.08 0 0 0-1.079-1.08z"/><path id="h" d="M11061.7-562.545c-.016-.145-.04-.3-.074-.43l-8.728-.007a3.62 3.62 0 0 1 .258-.98 3.51 3.51 0 0 1 .778-1.149c.328-.317.717-.567 1.142-.733 1.4-.604 3.03-.256 4.06.868l1.378-1.35a5.2 5.2 0 0 0-1.742-1.231 5.7 5.7 0 0 0-2.3-.444 5.78 5.78 0 0 0-2.18.415 5.44 5.44 0 0 0-1.778 1.157 5.56 5.56 0 0 0-1.2 1.756 5.3 5.3 0 0 0-.422 1.7h-.056c-.047-.583-.2-1.154-.423-1.7a5.55 5.55 0 0 0-1.2-1.756 5.44 5.44 0 0 0-1.778-1.157 5.77 5.77 0 0 0-2.179-.415c-.8-.013-1.572.14-2.3.444a5.2 5.2 0 0 0-1.742 1.231l1.378 1.35a3.77 3.77 0 0 1 4.06-.868 3.45 3.45 0 0 1 1.14.733 3.51 3.51 0 0 1 .778 1.149 3.53 3.53 0 0 1 .258.98l-8.728.007c-.034.142-.058.286-.074.43a4.33 4.33 0 0 0-.03.5 5.88 5.88 0 0 0 .311 1.926 4.45 4.45 0 0 0 .978 1.615c.477.506 1.057.906 1.7 1.172.72.287 1.492.428 2.268.415a5.78 5.78 0 0 0 2.18-.415 5.44 5.44 0 0 0 1.778-1.156 5.55 5.55 0 0 0 1.2-1.757c.145-.33.255-.677.328-1.03h.248a5.21 5.21 0 0 0 .327 1.03c.283.657.7 1.254 1.2 1.757a5.44 5.44 0 0 0 1.778 1.156 5.75 5.75 0 0 0 2.18.415 5.86 5.86 0 0 0 2.267-.415 4.92 4.92 0 0 0 1.7-1.172c.438-.462.77-1.013.978-1.615a5.88 5.88 0 0 0 .311-1.926 4.33 4.33 0 0 0-.03-.5zm-13.136 1.593c-.18.432-.448.823-.786 1.148a3.52 3.52 0 0 1-1.148.733 4.08 4.08 0 0 1-2.823.016 3.33 3.33 0 0 1-1-.63 2.39 2.39 0 0 1-.511-.675c-.15-.3-.26-.595-.333-.912h6.72a3.17 3.17 0 0 1-.12.32zm10.86.592a2.43 2.43 0 0 1-.51.675c-.293.268-.632.48-1 .63a4.09 4.09 0 0 1-2.824-.016c-.427-.167-.817-.416-1.148-.733-.337-.325-.604-.716-.785-1.148a2.91 2.91 0 0 1-.118-.32h6.72c-.072.317-.184.624-.334.912z"/><path id="i" d="M10 774a3.5 3.5 0 0 0 5 0l4-4c.917-.888 1.285-2.202.96-3.437s-1.288-2.2-2.524-2.524-2.55.044-3.437.96l-.5.5"/><path id="j" d="M14 770a3.5 3.5 0 0 0-5 0l-4 4c-1.343 1.387-1.325 3.595.04 4.96s3.573 1.383 4.96.04l.5-.5"/><path id="k" d="M12 322.148h.26l.024.001h.03.024l.03.001.095.004h.03l.024.001.03.002h.024l.03.002.024.001.06.004.048.004.046.004h.024l.03.003.024.002.06.006.024.002.07.007.1.012a9.79 9.79 0 0 1 3.657 1.176l-.73 1.3c-1.233-.687-2.636-1.05-4.058-1.05v-1.5zm7.8 3.832l.13.173.04.054.05.072.02.03.034.048.017.025.02.03.034.048.018.026.012.018.012.017.01.017.012.018.01.017.014.02.012.02.02.034.012.018.01.017.014.022.01.018.01.017.014.02.01.018.01.017.014.022.012.02.013.022.012.02.014.022.02.036.013.022.02.036.01.017.013.023.02.036.013.023.02.036.013.023.02.036.013.023.02.036.013.023.03.054.013.024.02.036.013.024.014.026.02.036.013.024.02.036.025.05.02.036.025.05.02.036.025.05v.018l.01.02.01.024.012.027.02.04.01.024.012.027.008.02.01.02.01.024.008.018.01.02.01.024.024.06.01.024.016.04.01.024.016.04.01.024.024.06.01.023.01.02.008.02.01.024.016.04.01.023.016.04.02.06.01.024.02.06.008.02.014.04.01.03.008.022.007.02.007.022.012.035.074.222.01.036.01.03.01.036.02.06.01.036.02.066.008.03.052.192c.083.324.15.655.2 1l-1.483.222a8.35 8.35 0 0 0-1.647-3.853l1.187-.917zm.282 8.137l1.45.38-.022.088-.007.027-.016.06-.005.02-.006.02-.008.027-.016.06-.01.03-.012.04-.008.028-.01.03-.012.037v.03l-.01.028-.012.038-.03.084-.013.038-.02.056v.028l-.013.037a9.84 9.84 0 0 1-1.708 3.001l-.02.022-.018.022-.12.132-.026.03-.017.02-.028.03-.017.02-.016.018-.015.017-.013.015-.014.015-.015.016-.014.015-.015.016-.02.023-.025.026-.02.022-.025.027-.03.032-1.083-1.037c.983-1.027 1.7-2.292 2.048-3.658zm-4.82 5.574l.586 1.38c-.85.36-1.76.606-2.713.715l-.046.006-.03.003-.138.012h-.023l-.023.002h-.024l-.046.004h-.023l-.024.002-.07.006-.024.002h-.023l-.095.004h-.023-.024-.048l-.12.005H12.3l-.048.002h-.024l-.024.001h-.4l-.08-.002h-.024l-.024-.001-.666-.042-.046-.004.142-1.493a8.5 8.5 0 0 0 .888.047 8.3 8.3 0 0 0 3.262-.66zm-10.38-3.318a8.41 8.41 0 0 0 3.024 2.91L7.17 340.6l-.018-.01-.033-.02-.078-.045-.034-.02-.05-.03a9.9 9.9 0 0 1-3.353-3.307l1.277-.787zm-2.097-7.866l1.403.532a8.32 8.32 0 0 0-.54 2.961 8.47 8.47 0 0 0 .087 1.21l-1.485.215c-.056-.386-.1-.78-.1-1.178v-.48-.023l.001-.026v-.023l.005-.113.001-.022v-.044l.002-.032v-.02l.001-.022.002-.028.001-.02.001-.022v-.035l.001-.02.002-.022.003-.042.002-.02.005-.057c.08-.933.287-1.815.6-2.645zm6.35-5.935l.436 1.435a8.37 8.37 0 0 0-3.576 2.189l-1.078-1.043.222-.223.06-.06.044-.04.026-.024.034-.032.015-.014.02-.017.016-.014.015-.014.02-.018.03-.028.02-.018.015-.013.022-.02.03-.025.044-.04.03-.025.022-.02c1.02-.872 2.22-1.54 3.535-1.938z"/><path id="l" d="M9 924h6a2 2 0 0 1 2 2v14l-5-3-5 3v-14a2 2 0 0 1 2-2"/><path id="m" d="M21.002 1055h-2v-13a1 1 0 0 0-1-1h-13v-2a1 1 0 0 1 1-1h15a1 1 0 0 1 1 1v15a1 1 0 0 1-1 1z"/><path id="n" d="M17.002 1059h-15a1 1 0 0 1-1-1v-15a1 1 0 0 1 1-1h15a1 1 0 0 1 1 1v15a1 1 0 0 1-1 1zm-14.5-6a.5.5 0 1 0 0 1h8a.5.5 0 1 0 0-1zm0-3a.5.5 0 1 0 0 1h14a.5.5 0 1 0 0-1zm0-3a.5.5 0 1 0 0 1h14a.5.5 0 1 0 0-1z"/><path id="o" d="M15 364v4m-6-4v4m-4 3h14m-8 4h1m0 0v2"/><path id="p" d="M51.5 176.642l3.145 3.145-3.145 3.145"/><path id="q" d="M60.723 255.572l-7.862 5.5-7.86-5.5"/><path id="r" d="M6 141v-2a4 4 0 0 1 4-4h4a4 4 0 0 1 4 4v2"/><path id="s" d="M3.05 331a9 9 0 1 1 .5 4m-.5 5v-5h5"/><path id="t" d="M54 168v-2a2 2 0 0 0-2-2h-7a2 2 0 0 0-2 2v12a2 2 0 0 0 2 2h7a2 2 0 0 0 2-2v-2m-7-4h14l-3-3m0 6l3-3"/><path id="u" d="M56 808v-2a2 2 0 0 0-2-2h-8a2 2 0 0 0-2 2v8a2 2 0 0 0 2 2h2"/><path id="v" d="M7 648l-4 4 4 4m10-8l4 4-4 4m-3-12l-4 16"/><path id="w" d="M52 565v-2m5 4l1.4-1.4m.6 6.4h2m-4 5l1.4 1.4m-6.4.6v2m-5-4l-1.4 1.4m.4-6.4h-2m3-5l-1.4-1.4"/><path id="x" d="M50 774a3.5 3.5 0 0 0 5 0l4-4c.917-.888 1.285-2.202.96-3.437a3.54 3.54 0 0 0-2.524-2.524c-1.236-.324-2.55.044-3.437.96l-.5.5m.5 4.5a3.5 3.5 0 0 0-5 0l-4 4c-1.343 1.387-1.325 3.595.04 4.96s3.573 1.383 4.96.04l.5-.5"/><path id="y" d="M9 964h6a2 2 0 0 1 2 2v14l-5-3-5 3v-14a2 2 0 0 1 2-2"/><path id="z" d="M6.2 897.5l5.8 5.8 5.8-5.8"/></defs><g clip-path="url(#c)"><g class="w m n"><g class="r"><rect width="14" height="14" rx="2" x="5" y="366"/><use xlink:href="#o" class="o"/></g><g class="s"><rect width="14" height="14" rx="2" x="45" y="366"/><path d="M55 364v4m-6-4v4m-4 3h14m-8 4h1m0 0v2" class="o"/></g><g class="q"><rect width="14" height="14" rx="2" x="85" y="366"/><path d="M95 364v4m-6-4v4m-4 3h14m-8 4h1m0 0v2" class="o"/></g></g><g transform="translate(-40 -10)" class="x AC"><use xlink:href="#d"/></g><g transform="translate(0 -10)" clip-path="url(#B)" class="u"><use xlink:href="#d"/></g><g transform="translate(40 -10)" class="t AC"><use xlink:href="#d"/></g><g class="w m"><g transform="translate(-21 -79)" clip-path="url(#C)" class="r"><circle cx="31.5" cy="129.5" r="6.5" class="y"/><path d="M42 140l-6-6" class="o z"/></g><g transform="translate(19 -79)" clip-path="url(#D)" class="s"><circle cx="31.5" cy="129.5" r="6.5" class="y"/><path d="M42 140l-6-6" class="o z"/></g><g transform="translate(59 -79)" clip-path="url(#E)" class="q"><circle cx="31.5" cy="129.5" r="6.5" class="y"/><path d="M42 140l-6-6" class="o z"/></g></g><g transform="translate(-67 342)" clip-path="url(#F)" class="x"><circle cx="72" cy="143" r="2"/><circle cx="79" cy="143" r="2"/><circle cx="86" cy="143" r="2"/><circle cx="72" cy="150" r="2"/><circle cx="79" cy="150" r="2"/><circle cx="86" cy="150" r="2"/><circle cx="72" cy="157" r="2"/><circle cx="79" cy="157" r="2"/><circle cx="86" cy="157" r="2"/></g><g transform="translate(-27 342)" clip-path="url(#G)" class="u"><circle cx="72" cy="143" r="2"/><circle cx="79" cy="143" r="2"/><circle cx="86" cy="143" r="2"/><circle cx="72" cy="150" r="2"/><circle cx="79" cy="150" r="2"/><circle cx="86" cy="150" r="2"/><circle cx="72" cy="157" r="2"/><circle cx="79" cy="157" r="2"/><circle cx="86" cy="157" r="2"/></g><g transform="translate(13 342)" clip-path="url(#H)" class="t"><circle cx="72" cy="143" r="2"/><circle cx="79" cy="143" r="2"/><circle cx="86" cy="143" r="2"/><circle cx="72" cy="150" r="2"/><circle cx="79" cy="150" r="2"/><circle cx="86" cy="150" r="2"/><circle cx="72" cy="157" r="2"/><circle cx="79" cy="157" r="2"/><circle cx="86" cy="157" r="2"/></g><g transform="translate(-41 32)" class="AD"><circle cx="53" cy="180" r="7" class="x"/><use xlink:href="#p" class="q w"/></g><g transform="translate(-1 32)" clip-path="url(#J)"><circle cx="53" cy="180" r="7" class="u"/><use xlink:href="#p" class="q w"/></g><g transform="translate(39 32)" class="AD"><circle cx="53" cy="180" r="7" class="t"/><use xlink:href="#p" class="s w"/></g><g class="w m n"><g transform="translate(-40 235)" clip-path="url(#K)" class="r"><use xlink:href="#e"/><circle cx="52.11" cy="216.388" r="2.158"/></g><g transform="translate(0 235)" clip-path="url(#L)" class="s"><use xlink:href="#e"/><circle cx="52.11" cy="216.388" r="2.158"/></g><g transform="translate(40 235)" clip-path="url(#M)" class="q"><use xlink:href="#e"/><circle cx="52.11" cy="216.388" r="2.158"/></g><g transform="translate(-41 -168)" clip-path="url(#N)" class="r"><use xlink:href="#f"/><use xlink:href="#q" class="o"/></g><g transform="translate(-1 -168)" clip-path="url(#O)" class="s"><use xlink:href="#f"/><use xlink:href="#q" class="o"/></g><g transform="translate(39 -168)" clip-path="url(#P)" class="q"><use xlink:href="#f"/><use xlink:href="#q" class="o"/></g></g><g transform="translate(-40 73)" class="x AE"><use xlink:href="#g"/></g><g transform="translate(0 73)" clip-path="url(#R)" class="u"><use xlink:href="#g"/></g><g transform="translate(40 73)" class="t AE"><use xlink:href="#g"/></g><g class="w m n"><g class="r"><circle cx="12" cy="127" r="4"/><use xlink:href="#r" class="o"/></g><g class="s"><circle cx="52" cy="127" r="4"/><path d="M46 141v-2a4 4 0 0 1 4-4h4a4 4 0 0 1 4 4v2" class="o"/></g><g class="q"><circle cx="92" cy="127" r="4"/><path d="M86 141v-2a4 4 0 0 1 4-4h4a4 4 0 0 1 4 4v2" class="o"/></g><g class="o r"><path d="M3 297h2.4a5 5 0 0 0 4.1-2.133l.177-.253m3.66-5.227l.177-.254A5 5 0 0 1 17.6 287H21m-3-3l3 3-3 3m-15-3h2.4a5 5 0 0 1 4.1 2.133l4.014 5.734A5 5 0 0 0 17.6 297H21"/><path d="M18 300l3-3-3-3"/></g><g class="o s"><path d="M43 297h2.4a5 5 0 0 0 4.1-2.133l.177-.253m3.66-5.227l.177-.254A5 5 0 0 1 57.6 287H61m-3-3l3 3-3 3m-15-3h2.4a5 5 0 0 1 4.1 2.133l4.014 5.734A5 5 0 0 0 57.6 297H61"/><path d="M58 300l3-3-3-3"/></g><g class="o q"><path d="M83 297h2.4a5 5 0 0 0 4.1-2.133l.177-.253m3.66-5.227l.177-.254A5 5 0 0 1 97.6 287h3.4m-3-3l3 3-3 3m-15-3h2.4a5 5 0 0 1 4.1 2.133l4.014 5.734A5 5 0 0 0 97.6 297h3.4"/><path d="M98 300l3-3-3-3"/></g><g class="o r"><path d="M12 328v4l2 2"/><use xlink:href="#s"/></g><g class="o s"><path d="M52 328v4l2 2"/><path d="M43.05 331a9 9 0 1 1 .5 4m-.5 5v-5h5"/></g><g class="o q"><path d="M92 328v4l2 2"/><path d="M83.05 331a9 9 0 1 1 .5 4m-.5 5v-5h5"/></g><g class="r o"><path d="M14 168v-2a2 2 0 0 0-2-2H5a2 2 0 0 0-2 2v12a2 2 0 0 0 2 2h7a2 2 0 0 0 2-2v-2m-7-4h14l-3-3m0 6l3-3"/></g><g class="s o"><use xlink:href="#t"/></g><g class="q o"><path d="M94 168v-2a2 2 0 0 0-2-2h-7a2 2 0 0 0-2 2v12a2 2 0 0 0 2 2h7a2 2 0 0 0 2-2v-2m-7-4h14l-3-3m0 6l3-3"/></g></g><g transform="translate(-11039 815)" clip-path="url(#S)" class="x"><use xlink:href="#h"/></g><g transform="translate(-10999 815)" clip-path="url(#T)" class="u"><use xlink:href="#h"/></g><g transform="translate(-10959 815)" clip-path="url(#U)" class="t"><use xlink:href="#h"/></g><g class="w m n"><g class="o r"><path d="M4 540h4l10.5-10.5a2.83 2.83 0 0 0 0-4 2.83 2.83 0 0 0-4 0L4 536v4"/><path d="M13.5 526.5l4 4"/></g><g class="o s"><path d="M44 540h4l10.5-10.5a2.83 2.83 0 0 0 0-4 2.83 2.83 0 0 0-4 0L44 536v4"/><path d="M53.5 526.5l4 4"/></g><g class="o q"><path d="M84 540h4l10.5-10.5a2.83 2.83 0 0 0 0-4 2.83 2.83 0 0 0-4 0L84 536v4"/><path d="M93.5 526.5l4 4"/></g><g class="r"><rect width="12" height="12" rx="2" x="8" y="808"/><path d="M16 808v-2a2 2 0 0 0-2-2H6a2 2 0 0 0-2 2v8a2 2 0 0 0 2 2h2" class="o"/></g><g class="s"><rect width="12" height="12" rx="2" x="48" y="808"/><use xlink:href="#u" class="o"/></g><g class="q"><rect width="12" height="12" rx="2" x="88" y="808"/><path d="M96 808v-2a2 2 0 0 0-2-2h-8a2 2 0 0 0-2 2v8a2 2 0 0 0 2 2h2" class="o"/></g><path d="M7 844v16l13-8z" class="r"/><path d="M47 844v16l13-8z" class="s"/><path d="M87 844v16l13-8z" class="q"/><g class="r o"><use xlink:href="#v"/></g><g class="s o"><path d="M47 648l-4 4 4 4m10-8l4 4-4 4m-3-12l-4 16"/></g><g class="q o"><path d="M87 648l-4 4 4 4m10-8l4 4-4 4m-3-12l-4 16"/></g><g class="r"><circle cx="12" cy="572" r="3"/><path d="M12 565v-2m5 4l1.4-1.4m.6 6.4h2m-4 5l1.4 1.4m-6.4.6v2m-5-4l-1.4 1.4M6 572H4m3-5l-1.4-1.4" class="o"/></g><g class="s"><circle cx="52" cy="572" r="3"/><use xlink:href="#w" class="o"/></g><g class="q"><circle cx="92" cy="572" r="3"/><path d="M92 565v-2m5 4l1.4-1.4m.6 6.4h2m-4 5l1.4 1.4m-6.4.6v2m-5-4l-1.4 1.4m.4-6.4h-2m3-5l-1.4-1.4" class="o"/></g><path d="M12 683h.393a7.5 7.5 0 0 0 7.92 12.446A9 9 0 1 1 12 682.992z" class="r"/><path d="M52 683h.393a7.5 7.5 0 0 0 7.92 12.446A9 9 0 1 1 52 682.992z" class="s"/><path d="M92 683h.393a7.5 7.5 0 0 0 7.92 12.446A9 9 0 1 1 92 682.992z" class="q"/><g class="o r"><use xlink:href="#i"/><use xlink:href="#j"/></g><g class="s o"><use xlink:href="#x"/></g><g class="q o"><path d="M90 774a3.5 3.5 0 0 0 5 0l4-4c.917-.888 1.285-2.202.96-3.437a3.54 3.54 0 0 0-2.524-2.524c-1.236-.324-2.55.044-3.437.96l-.5.5m.5 4.5a3.5 3.5 0 0 0-5 0l-4 4c-1.343 1.387-1.325 3.595.04 4.96s3.573 1.383 4.96.04l.5-.5"/></g><g class="o r"><path d="M18 606L6 618"/><path d="M6 606l12 12"/></g><g class="o s"><path d="M58 606l-12 12"/><path d="M46 606l12 12"/></g><g class="o q"><path d="M98 606l-12 12"/><path d="M86 606l12 12"/></g></g><g transform="translate(0 400)" clip-path="url(#V)" class="x"><use xlink:href="#k"/></g><g transform="translate(40 400)" clip-path="url(#W)" class="u"><use xlink:href="#k"/></g><g transform="translate(80 400)" clip-path="url(#X)" class="w"><use xlink:href="#k"/></g><g class="m n o r"><use xlink:href="#l" class="w"/><use xlink:href="#y" class="x"/></g><g class="m n o"><path d="M49 964h6a2 2 0 0 1 2 2v14l-5-3-5 3v-14a2 2 0 0 1 2-2" class="s u"/><path d="M89 964h6a2 2 0 0 1 2 2v14l-5-3-5 3v-14a2 2 0 0 1 2-2" class="q t"/></g><g class="w n"><g class="m o"><path d="M49 924h6a2 2 0 0 1 2 2v14l-5-3-5 3v-14a2 2 0 0 1 2-2" class="s"/><path d="M89 924h6a2 2 0 0 1 2 2v14l-5-3-5 3v-14a2 2 0 0 1 2-2" class="q"/></g><g class="m o AA"><path d="M6 1004h11a2 2 0 0 1 2 2v12a2 2 0 0 1-2 2H6a1 1 0 0 1-1-1v-14a1 1 0 0 1 1-1m3 0v18"/><path d="M13 1008h2m-2 4h2"/></g><g class="m o s"><path d="M46 1004h11a2 2 0 0 1 2 2v12a2 2 0 0 1-2 2H46a1 1 0 0 1-1-1v-14a1 1 0 0 1 1-1m3 0v18"/><path d="M53 1008h2m-2 4h2"/></g><g class="m o q"><path d="M86 1004h11a2 2 0 0 1 2 2v12a2 2 0 0 1-2 2H86a1 1 0 0 1-1-1v-14a1 1 0 0 1 1-1m3 0v18"/><path d="M93 1008h2m-2 4h2"/></g><g class="AA m"><circle cx="10" cy="1090" r="7"/><g class="o"><path d="M7 1090h6"/><path d="M10 1087v6m11 8l-6-6"/></g></g><g class="s m"><circle cx="50" cy="1090" r="7"/><g class="o"><path d="M47 1090h6"/><path d="M50 1087v6m11 8l-6-6"/></g></g><g class="q m"><circle cx="90" cy="1090" r="7"/><g class="o"><path d="M87 1090h6"/><path d="M90 1087v6m11 8l-6-6"/></g></g><g class="AA m"><circle cx="10" cy="1130" r="7"/><path d="M7 1130h6m8 11l-6-6" class="o"/></g><g class="s m"><circle cx="50" cy="1130" r="7"/><path d="M47 1130h6m8 11l-6-6" class="o"/></g><g class="q m"><circle cx="90" cy="1130" r="7"/><path d="M87 1130h6m8 11l-6-6" class="o"/></g><g transform="translate(0 -8)" class="r AB"><use xlink:href="#z"/></g><g transform="translate(40 -8)" class="s AB"><use xlink:href="#z"/></g><g transform="translate(80 -8)" class="q AB"><use xlink:href="#z"/></g></g><g transform="translate(0 3)" clip-path="url(#Z)" fill="#39914e"><use xlink:href="#m"/><use xlink:href="#n"/></g><g transform="translate(40 3)" clip-path="url(#a)" class="u"><use xlink:href="#m"/><use xlink:href="#n"/></g><g transform="translate(80 3)" clip-path="url(#b)" class="t"><use xlink:href="#m"/><use xlink:href="#n"/></g></g></svg>