<svg width="96" height="96" viewBox="0 0 96 96" fill="none" xmlns="http://www.w3.org/2000/svg">
<path d="M34.1148 76.5482L42.3229 65.1934H69.2905L57.9357 83.6449H46.5809" stroke="white" stroke-width="3" stroke-linecap="round" stroke-linejoin="round"/>
<path d="M16.7741 89.3223H70.7095" stroke="white" stroke-width="3" stroke-linecap="round" stroke-linejoin="round"/>
<path fill-rule="evenodd" clip-rule="evenodd" d="M18.9032 60.9353C14.2903 60.9353 11.0967 57.3955 11.0967 53.0281V50.391C11.0967 46.0236 14.2903 42.4838 18.9032 42.4838C23.5161 42.4838 26.7096 46.0236 26.7096 50.391V53.0281C26.7096 57.3955 23.5161 60.9353 18.9032 60.9353Z" stroke="white" stroke-width="3"/>
<path d="M15.3548 79.3869L23.8709 89.3223H35.2257C40.9031 89.3223 40.9031 82.2256 40.9031 82.2256H29.5483L18.5725 68.8099C17.4342 67.4189 15.7323 66.6127 13.9355 66.6127C9.72708 66.6127 6.66128 69.23 5.91328 74.6349C5.26748 79.2989 4 89.3223 4 89.3223" stroke="white" stroke-width="3" stroke-linecap="round"/>
<path fill-rule="evenodd" clip-rule="evenodd" d="M69.2901 46.7418C69.2901 50.6606 66.1122 53.8386 62.1934 53.8386C58.2745 53.8386 55.0966 50.6606 55.0966 46.7418C55.0966 42.823 58.2745 39.6451 62.1934 39.6451C66.1122 39.6451 69.2901 42.823 69.2901 46.7418Z" stroke="white" stroke-width="3"/>
<path d="M73.7117 66.2891L80.2591 70.8296L86.28 64.8073L81.741 58.2598C82.8055 56.4573 83.6216 54.4971 84.1581 52.4192L92 50.9999V42.4838L84.1581 41.0644C83.623 38.9865 82.8055 37.0264 81.741 35.2238L86.28 28.6763L80.2591 22.6554L73.7117 27.1945C71.9091 26.13 69.949 25.3125 67.8711 24.7759L66.4517 16.9355H57.9356L56.5163 24.7759C54.4369 25.3125 52.4782 26.13 50.6756 27.1945L44.1282 22.6554L38.1059 28.6763L42.6464 35.2238C41.5819 37.0264 40.7643 38.9865 40.2278 41.0644L32.3873 42.4838V50.9999L40.2278 52.4192C40.7643 54.4971 41.5819 56.4573 42.6464 58.2598" stroke="white" stroke-width="3" stroke-linecap="round" stroke-linejoin="round"/>
<path d="M26.7096 14.0967L23.8709 16.9354" stroke="white" stroke-width="3"/>
<path d="M33.8064 7L30.9677 9.8387" stroke="white" stroke-width="3"/>
<path d="M30.9677 14.0967L33.8064 16.9354" stroke="white" stroke-width="3"/>
<path d="M23.8709 7L26.7096 9.8387" stroke="white" stroke-width="3"/>
<path d="M19.6129 22.6129V25.4516" stroke="white" stroke-width="3"/>
<path d="M19.6129 28.2903V31.129" stroke="white" stroke-width="3"/>
<path d="M18.1935 26.8709H15.3548" stroke="white" stroke-width="3"/>
<path d="M23.8709 26.8709H21.0322" stroke="white" stroke-width="3"/>
</svg>
